<svg width="32" height="32" viewBox="0 0 32 32" fill="none" xmlns="http://www.w3.org/2000/svg">
<path d="M29.9255 24.8267C29.9255 24.8267 26.8984 26.1268 25.9923 26.7387C24.3362 27.8571 20.8722 27.9999 16.0001 27.9999C11.128 27.9999 7.66398 27.8571 6.00788 26.7387C5.10183 26.1268 2.07471 24.8267 2.07471 24.8267H29.9255Z" fill="#B0C4CC"/>
<path d="M22.8029 23.397C27.096 23.6318 30 24.0821 30 24.599C30 25.3584 23.732 25.974 16 25.974C8.26802 25.974 2 25.3584 2 24.599C2 24.1788 3.91963 23.8025 6.94467 23.5503L22.8029 23.397Z" fill="#DCE2E1"/>
<path d="M13.8743 22.5372C14.9623 21.7965 16.8811 20.8236 19.0432 21.233C21.1729 21.6363 23.2527 23.8259 24.0802 24.7901L13.8743 22.5372Z" fill="#ED931B"/>
<path d="M21.5907 23.7209C20.7478 23.0155 19.7743 22.3893 18.8571 22.2156C17.93 22.0542 16.9765 22.1494 16.0996 22.491C17.5871 23.5543 19.4563 23.8901 21.5907 23.7209Z" fill="#FFBB24"/>
<path d="M12.8975 22.4983C13.7074 22.152 14.5845 21.9911 15.4647 22.0272C16.7983 22.0911 18.2072 22.8289 19.3154 23.5825C16.3993 25.2798 14.1621 25.1777 12.8975 22.4983Z" fill="#FFBB24"/>
<path d="M18.3088 24.1224C17.3822 23.5476 16.3413 23.0705 15.4169 23.0262C14.6134 22.9952 13.8143 23.1583 13.0872 23.5016C14.6765 25.3487 16.4218 25.504 18.3088 24.1224Z" fill="#ED931B"/>
<path d="M16.9321 24.4988C16.447 24.2402 15.9159 24.0793 15.3689 24.0251C15.2914 24.0213 15.2154 24.02 15.1408 24.0212C14.632 24.0337 14.1303 24.1425 13.6621 24.342C14.9677 25.7587 16.0899 26.0153 16.9321 24.4988Z" fill="#FFBB24"/>
<path d="M13.7501 22.4952C13.2126 22.6099 14.41 22.416 14.7818 21.7693C14.9687 21.396 15.0449 20.977 15.0015 20.5618C14.5956 20.6595 14.2262 20.8713 13.9368 21.1722C13.4085 21.789 13.7127 23.1481 13.5708 22.2002L13.7501 22.4952Z" fill="#17AF54"/>
<path d="M9.75 9.24988V9.99988L16.3859 10.4739C16.6274 10.4911 16.87 10.4732 17.1063 10.4207L18.2169 10.1739C18.439 10.1245 18.6377 10.0009 18.78 9.82343C18.9224 9.64595 19 9.42523 19 9.19771V8.87488L30 9.12488V6.87488L19 7.12488V6.80206C19 6.57453 18.9224 6.3538 18.78 6.17632C18.6377 5.99884 18.439 5.87521 18.2169 5.82586L17.1063 5.57906C16.87 5.52655 16.6274 5.50864 16.3859 5.52588L9.75 5.99988V6.74988L16.2325 6.51836C16.2981 6.51601 16.3635 6.52661 16.425 6.54954C16.4864 6.57247 16.5428 6.60729 16.5908 6.652C16.6389 6.69672 16.6776 6.75045 16.7049 6.81014C16.7321 6.86983 16.7474 6.93431 16.7497 6.99988C16.752 7.06546 16.7414 7.13086 16.7185 7.19234C16.6956 7.25382 16.6608 7.31018 16.6161 7.35821C16.5713 7.40624 16.5176 7.44498 16.4579 7.47224C16.3982 7.4995 16.3338 7.51474 16.2682 7.51708L9.75 7.74988V8.24988L16.2682 8.48268C16.334 8.48468 16.3987 8.49967 16.4587 8.52678C16.5187 8.5539 16.5728 8.5926 16.6178 8.64067C16.6628 8.68874 16.6978 8.74522 16.7209 8.80688C16.744 8.86854 16.7547 8.93415 16.7523 8.99995C16.75 9.06575 16.7346 9.13044 16.7072 9.19029C16.6798 9.25014 16.6408 9.30399 16.5925 9.34873C16.5442 9.39346 16.4875 9.42822 16.4257 9.45098C16.364 9.47375 16.2983 9.48408 16.2325 9.48138L9.75 9.24988Z" fill="#B0C4CC"/>
<path d="M11.75 10.7947V23.9342L12.75 23.747V10.4805" fill="#FFBB24"/>
<path d="M12.75 23.747V10.7947L13.75 10.5537V24.4395L12.75 23.747Z" fill="#ED931B"/>
<path d="M12.25 5.25C12.25 4.97386 12.0261 4.75 11.75 4.75C11.4739 4.75 11.25 4.97386 11.25 5.25V10.75C11.25 11.0261 11.4739 11.25 11.75 11.25C12.0261 11.25 12.25 11.0261 12.25 10.75V5.25Z" fill="#FFBB24"/>
<path d="M13.25 4.5C13.25 4.22386 13.0261 4 12.75 4C12.4739 4 12.25 4.22386 12.25 4.5V11.5C12.25 11.7761 12.4739 12 12.75 12C13.0261 12 13.25 11.7761 13.25 11.5V4.5Z" fill="#ED931B"/>
<path d="M14.25 5C14.25 4.72386 14.0261 4.5 13.75 4.5C13.4739 4.5 13.25 4.72386 13.25 5V11C13.25 11.2761 13.4739 11.5 13.75 11.5C14.0261 11.5 14.25 11.2761 14.25 11V5Z" fill="#FFBB24"/>
<path d="M15.25 5.25C15.25 4.97386 15.0261 4.75 14.75 4.75C14.4739 4.75 14.25 4.97386 14.25 5.25V10.75C14.25 11.0261 14.4739 11.25 14.75 11.25C15.0261 11.25 15.25 11.0261 15.25 10.75V5.25Z" fill="#ED931B"/>
<path d="M25.6974 25.5925C25.1949 25.64 24.6574 25.6825 24.0899 25.72C23.4849 25.765 22.8474 25.8033 22.1774 25.835C20.8174 25.9 19.3349 25.945 17.7699 25.965C17.2524 25.97 16.7249 25.975 16.1899 25.975H15.8524C15.6404 25.8344 15.4367 25.6816 15.2424 25.5175C16.1228 24.5484 17.2455 23.8313 18.4949 23.44C18.8707 23.3306 19.257 23.2619 19.6474 23.235C20.2133 23.2058 20.7802 23.2657 21.3274 23.4125C23.2424 23.89 25.0949 25.155 25.6974 25.5925Z" fill="#ED931B"/>
<path d="M24.0899 25.7198C23.4849 25.7648 22.8474 25.8032 22.1774 25.8348C20.8174 25.8998 19.3349 25.9448 17.7699 25.9648C17.2524 25.9698 16.7249 25.9748 16.1899 25.9748C16.9849 25.1948 18.1924 24.3348 19.7174 24.2323C21.1024 24.1348 22.8624 24.9773 24.0899 25.7198Z" fill="#FFBB24"/>
<path d="M22.1775 25.835C20.8175 25.9 19.335 25.945 17.77 25.965C18.3039 25.5928 18.9164 25.349 19.56 25.2525C19.635 25.2425 19.71 25.235 19.7875 25.23C20.4725 25.1825 21.3425 25.455 22.1775 25.835Z" fill="#ED931B"/>
<path d="M16.4826 25.9724C16.3226 25.9749 16.1626 25.9749 16.0001 25.9749C15.6651 25.9749 15.3301 25.9749 15.0001 25.9699C14.4401 25.9674 13.8901 25.9608 13.3501 25.9499C11.1676 25.9099 9.16257 25.8174 7.46757 25.6899C6.97007 25.6524 6.50007 25.6099 6.06007 25.5699C5.61507 25.5249 5.20257 25.4774 4.82007 25.4274C5.47212 24.6793 6.24335 24.0441 7.10257 23.5474C8.16081 22.913 9.38248 22.6043 10.6151 22.6599C11.5187 22.7541 12.3925 23.0369 13.1801 23.4899C14.3856 24.1681 15.4961 25.0028 16.4826 25.9724Z" fill="#ED931B"/>
<path d="M15.0001 25.97C14.4401 25.9675 13.8901 25.9609 13.3501 25.9501C11.1676 25.9101 9.16256 25.8176 7.46756 25.6901C6.97006 25.6526 6.50006 25.61 6.06006 25.57C6.83756 24.825 8.49756 23.5275 10.5526 23.66C12.0726 23.755 13.8926 25.0275 15.0001 25.97Z" fill="#FFBB24"/>
<path d="M13.35 25.9499C11.1675 25.9099 9.16253 25.8174 7.46753 25.6899C8.16753 25.1724 9.15003 24.6499 10.26 24.6499C10.335 24.6499 10.4125 24.6524 10.49 24.6574C11.3475 24.7099 12.425 25.2974 13.35 25.9499Z" fill="#ED931B"/>
</svg>
